# xmcd
#
# Track frame offsets: 
#        150
#        30638
#        64238
#        79125
#
# Disc length: 1209 seconds
#
# Revision: 1
# Processed by: cddbd v1.5.1PL0 Copyright (c) Steve Scherf et al.
# Submitted via: ExactAudioCopy v0.95a5
#
DISCID=2c04b704
DTITLE=Grandmaster flash and Melle mel - White lines (Don't do it) (Be
DTITLE=n Liebrand Remix)
DYEAR=1989
DGENRE=Rap
TTITLE0=White lines (Freestyle remix)
TTITLE1=White lines (Original long version)
TTITLE2=White lines (Freestyle remix edit)
TTITLE3=Bonus lines 
EXTD=Remix cd by Ben Liebrand
EXTT0=
EXTT1=
EXTT2=
EXTT3=
PLAYORDER=
